Coordinates
version=1
nRows=14
nColumns=40
inDegrees=yes

Units are S.I. units (second, meters, Newtons, ...)
Angles are in degrees.

endheader
time	pelvis_tilt	pelvis_list	pelvis_rotation	pelvis_tx	pelvis_ty	pelvis_tz	hip_flexion_r	hip_adduction_r	hip_rotation_r	knee_angle_r	knee_angle_r_beta	ankle_angle_r	subtalar_angle_r	mtp_angle_r	hip_flexion_l	hip_adduction_l	hip_rotation_l	knee_angle_l	knee_angle_l_beta	ankle_angle_l	subtalar_angle_l	mtp_angle_l	lumbar_extension	lumbar_bending	lumbar_rotation	arm_flex_r	arm_add_r	arm_rot_r	elbow_flex_r	pro_sup_r	wrist_flex_r	wrist_dev_r	arm_flex_l	arm_add_l	arm_rot_l	elbow_flex_l	pro_sup_l	wrist_flex_l	wrist_dev_l
     25.90000000	     -6.26797404	     -3.86687944	      0.36904511	      0.98491370	      0.93126772	      0.40006669	     31.30348310	     -5.65917253	     -6.00596066	     69.91740636	     69.91740636	      1.60233100	    -12.27182687	     -1.22228006	     17.62325159	     -3.80218022	     -8.27943982	     20.04449844	     20.04449844	     11.28546344	     -7.19871759	     -2.15362720	    -10.88088743	      4.69295121	      3.20774010	      7.83536885	    -15.33056850	    -11.17983027	     34.98653876	     44.76897057	      0.00000000	      0.00000000	     16.17398158	    -14.14514553	      0.15217636	     54.18909843	     45.39196091	      0.00000000	      0.00000000
     25.91164286	     -6.21669569	     -4.04048528	      0.30345475	      0.98415393	      0.93198830	      0.39998880	     32.35998242	     -5.55544833	     -6.21975851	     68.57913823	     68.57913823	      1.60802601	    -12.51609675	     -1.11528892	     16.65344721	     -3.94051552	     -8.31548514	     19.38440730	     19.38440730	     11.56678316	     -6.96794291	     -2.15762041	    -10.98807116	      4.96051096	      3.40217767	      5.79302235	    -15.49416774	    -11.02987332	     33.56031741	     44.82049190	      0.00000000	      0.00000000	     17.79493593	    -14.22167188	     -0.10514651	     55.63597943	     45.46437099	      0.00000000	      0.00000000
     25.92328571	     -6.21122653	     -4.18609008	      0.21693757	      0.98330893	      0.93228777	      0.39996247	     33.41763852	     -5.51753044	     -6.45681600	     67.16478101	     67.16478101	      1.58460708	    -12.52023971	     -1.14911912	     15.91933196	     -4.09990256	     -8.42090536	     19.07390468	     19.07390468	     11.90870758	     -6.74534104	     -2.47672758	    -11.07508532	      5.17581763	      3.51671248	      3.92341669	    -15.58268948	    -10.88992238	     31.76621856	     44.90904281	      0.00000000	      0.00000000	     19.20958797	    -14.55777077	     -0.24896938	     57.76005825	     45.56089904	      0.00000000	      0.00000000
     25.93492857	     -6.19787003	     -4.35400802	      0.13349852	      0.98263111	      0.93262628	      0.40000222	     34.26239831	     -5.42258405	     -6.74033054	     65.41470803	     65.41470803	      1.56971377	    -12.54230872	     -1.02369672	     15.10885857	     -4.27833214	     -8.54091982	     18.62245863	     18.62245863	     12.11924750	     -6.48024729	     -2.96876615	    -11.12586869	      5.43246752	      3.20198812	      2.71164546	    -15.52194205	    -10.82062869	     29.42252076	     45.08568013	      0.00000000	      0.00000000	     19.95805998	    -15.18648754	     -0.34873529	     60.61396583	     45.73296199	      0.00000000	      0.00000000
     25.94657143	     -6.18322827	     -4.44706154	      0.01775718	      0.98203734	      0.93290380	      0.40008720	     34.99220610	     -5.36259791	     -6.95718798	     63.40682075	     63.40682075	      1.60888418	    -12.45407053	     -0.66783840	     14.26910449	     -4.35845408	     -8.62263285	     18.13294577	     18.13294577	     12.42189037	     -6.31163088	     -3.09171377	    -11.18880188	      5.60849538	      3.30265715	      0.87881664	    -15.54545977	    -10.78916594	     28.10394393	     45.15920405	      0.00000000	      0.00000000	     21.32384319	    -15.31651753	     -0.75177912	     62.25786577	     45.83930140	      0.00000000	      0.00000000
     25.95821429	     -6.12713305	     -4.53930011	     -0.12851314	      0.98156669	      0.93320935	      0.40034280	     35.50173967	     -5.25302369	     -7.18066119	     61.01986811	     61.01986811	      1.62202148	    -12.32140312	     -0.25948742	     13.35520368	     -4.45063766	     -8.75116858	     17.60249892	     17.60249892	     12.71536882	     -6.11795976	     -3.19659719	    -11.29461346	      5.78431074	      3.38709506	     -0.88842286	    -15.54796911	    -10.77678789	     26.98712394	     45.21320121	      0.00000000	      0.00000000	     22.55841962	    -15.49091380	     -1.08360464	     63.88180509	     45.92016347	      0.00000000	      0.00000000
     25.96985714	     -6.10177786	     -4.54055336	     -0.30311434	      0.98119961	      0.93334012	      0.40070341	     35.91012887	     -5.19843486	     -7.38343412	     58.30842915	     58.30842915	      1.63372452	    -12.08847699	      0.14985963	     12.47088979	     -4.45676547	     -8.95202677	     17.07986929	     17.07986929	     12.96678276	     -5.90989212	     -3.39114063	    -11.36383511	      5.82676038	      3.41751913	     -2.57274805	    -15.46733382	    -10.80700702	     25.92568096	     45.27644573	      0.00000000	      0.00000000	     23.58580148	    -15.71020551	     -1.41984115	     65.84681286	     46.01216716	      0.00000000	      0.00000000
     25.98150000	     -6.12128531	     -4.60850097	     -0.45337679	      0.98090487	      0.93335956	      0.40121123	     36.15123360	     -5.06172587	     -7.71414022	     55.15350952	     55.15350952	      1.63499828	    -11.74177868	      0.55559035	     11.64874135	     -4.53118526	     -9.05267872	     16.57540615	     16.57540615	     13.24492652	     -5.73711354	     -3.50093710	    -11.34735456	      5.97265490	      3.27757678	     -4.14881306	    -15.38495529	    -10.83324018	     25.18816360	     45.31154418	      0.00000000	      0.00000000	     24.51770691	    -15.99448523	     -1.72547502	     67.22762440	     46.07539957	      0.00000000	      0.00000000
     25.99314286	     -6.07253797	     -4.51561641	     -0.68898364	      0.98076082	      0.93327716	      0.40192693	     36.18377420	     -4.97656584	     -7.92389301	     51.65149045	     51.65149045	      1.41743727	    -11.38340164	      0.40961971	     10.68565495	     -4.45399321	     -9.35164306	     15.98528301	     15.98528301	     13.36171033	     -5.52867067	     -4.04221212	    -11.49805917	      5.86417551	      3.04310886	     -5.59378253	    -15.20292521	    -11.11452460	     24.60850084	     45.42891151	      0.00000000	      0.00000000	     24.69317793	    -16.53065826	     -2.40007854	     70.65555369	     46.26559467	      0.00000000	      0.00000000
     26.00478571	     -6.06918737	     -4.46801498	     -0.89433875	      0.98068370	      0.93309720	      0.40276604	     36.05598198	     -4.82609238	     -8.28744814	     47.75828138	     47.75828138	      1.30493639	    -10.75949966	      0.81689142	      9.80934185	     -4.42126376	     -9.52121069	     15.47740258	     15.47740258	     13.64898686	     -5.34474623	     -4.12862189	    -11.50363261	      5.82974745	      3.03720296	     -7.16239334	    -15.09245701	    -11.13835751	     24.03549281	     45.45815022	      0.00000000	      0.00000000	     25.55132099	    -16.65753478	     -2.72048822	     71.91038801	     46.32959563	      0.00000000	      0.00000000
     26.01642857	     -6.08405638	     -4.37010469	     -1.09536744	      0.98070121	      0.93274765	      0.40374945	     35.75785703	     -4.67973060	     -8.75127549	     43.52821029	     43.52821029	      1.14383197	     -9.95176189	      1.19441706	      8.94999063	     -4.34866890	     -9.79256838	     14.97349036	     14.97349036	     13.90411564	     -5.10663293	     -4.24779433	    -11.49014584	      5.75748203	      3.08852492	     -8.76477864	    -14.88734303	    -11.19584323	     23.65391596	     45.47975945	      0.00000000	      0.00000000	     26.30392624	    -16.82432951	     -3.03556071	     73.44147189	     46.39600474	      0.00000000	      0.00000000
     26.02807143	     -6.06930262	     -4.25528323	     -1.29694543	      0.98091402	      0.93225925	      0.40492919	     35.22766819	     -4.48327321	     -9.31457403	     39.01667819	     39.01667819	      0.92456991	     -8.90905737	      1.58139105	      8.04498073	     -4.26897066	    -10.07687764	     14.48069215	     14.48069215	     14.20884949	     -4.79040515	     -4.42885949	    -11.49524234	      5.61236344	      3.12167321	    -10.34433817	    -14.68275128	    -11.29374006	     23.46501597	     45.49531787	      0.00000000	      0.00000000	     26.87886826	    -16.95407470	     -3.31010779	     75.11001022	     46.46068572	      0.00000000	      0.00000000
     26.03971429	     -6.00003600	     -4.03783979	     -1.51089021	      0.98134719	      0.93155789	      0.40632138	     34.44087267	     -4.31411660	     -9.96679758	     34.24699984	     34.24699984	      0.22474398	     -7.73479727	      0.67017611	      7.07876891	     -4.13192018	    -10.67860126	     14.02119103	     14.02119103	     14.47900994	     -4.07894570	     -4.97242114	    -11.63991281	      5.29949883	      2.84857236	    -12.15681083	    -14.39947895	    -11.79581266	     24.86115668	     45.53013094	      0.00000000	      0.00000000	     26.64990711	    -17.45184523	     -4.01230864	     78.56364163	     46.65896428	      0.00000000	      0.00000000
     26.05135714	     -5.92809380	     -3.83310955	     -1.68616719	      0.98194797	      0.93074924	      0.40782114	     33.51253883	     -4.08659745	    -10.76321989	     29.47194292	     29.47194292	     -0.02040593	     -6.04555028	      1.33185530	      6.08708662	     -3.97226871	    -11.05443663	     13.53349081	     13.53349081	     14.82165118	     -3.59382569	     -5.20677384	    -11.65535605	      5.02720197	      2.93884725	    -13.66022829	    -14.11437917	    -11.86016211	     24.83456213	     45.55042285	      0.00000000	      0.00000000	     27.14640272	    -17.50646559	     -4.21609114	     79.98027132	     46.73685318	      0.00000000	      0.00000000
